<?xml version="1.0" encoding="utf-8"?>
<?xml-stylesheet type="text/xsl" href="rss1.xsl"?>
<rss version="2.0" xmlns:atom="http://www.w3.org/2005/Atom" xmlns:content="http://purl.org/rss/1.0/modules/content/" xmlns:dc="http://purl.org/dc/elements/1.1/" xmlns:media="http://search.yahoo.com/mrss/">
<channel>
 <title>Getty</title>
 <link>http://www.gettyimg.com/</link>
 <atom:link href="http://www.gettyimg.com/" rel="self" type="application/rss+xml" />

 
                <item>
                <title><![CDATA[【Cinema Center】WEB-DL - The Exorcism (2024) 1080p AMZN WEB-DL DDP5.1 H.264 - XEBEC]]></title>
                <link><![CDATA[https://sharemania.us/threads/the-exorcism-2024-1080p-amzn-web-dl-ddp5-1-h-264-xebec.249510/]]></link>
                <description><![CDATA[<article>
<blockquote class="messageText SelectQuoteContainer ugc baseHtml">
<div style="text-align: center"><img src="https://m.media-amazon.com/images/M/MV5BZGFmN2Q0NDYtYjI5OS00MDA5LThjYTctNTFiY2ZmMDNkNjAwXkEyXkFqcGdeQXVyMTM1NjM2ODg1._V1_FMjpg_UY7998_.jpg" class="bbCodeImage LbImage" alt="[​IMG]" data-url="https://m.media-amazon.com/images/M/MV5BZGFmN2Q0NDYtYjI5OS00MDA5LThjYTctNTFiY2ZmMDNkNjAwXkEyXkFqcGdeQXVyMTM1NjM2ODg1._V1_FMjpg_UY7998_.jpg" style=""> <br>
<br>
A troubled actor begins to exhibit a disruptive behavior while shooting a horror film. His estranged daughter wonders if he's slipping back into his past addictions or if there's something more sinister at play.<br>
<br>
Download:<br>
<br>
<div class="bbCodeBlock bbCodeVfcHH HiddenContent">
<div class="attribution type">Hidden Content:</div>
<blockquote>You must either reply or click 'Like' to see the hidden information contained here.</blockquote>
</div></div>
<div class="messageTextEndMarker">&nbsp;</div>
</blockquote>
</article>]]></description>
                <author><![CDATA[sunnyillion]]></author>
                </item>

                
                <item>
                <title><![CDATA[【Cinema Center】MOVIE - Anyone But You 1080p GPLAY WEB-DL LATINO]]></title>
                <link><![CDATA[https://sharemania.us/threads/anyone-but-you-1080p-gplay-web-dl-latino.249509/]]></link>
                <description><![CDATA[<article>
<blockquote class="messageText SelectQuoteContainer ugc baseHtml">
THANKS
<div class="messageTextEndMarker">&nbsp;</div>
</blockquote>
</article>]]></description>
                <author><![CDATA[santibg0604]]></author>
                </item>

                
                <item>
                <title><![CDATA[【Requests】[REQ AUD] - Gloria Estefan "Reach" single (UK and European Editions) in lossless format]]></title>
                <link><![CDATA[https://sharemania.us/threads/gloria-estefan-reach-single-uk-and-european-editions-in-lossless-format.249501/]]></link>
                <description><![CDATA[<article>
<blockquote class="messageText SelectQuoteContainer ugc baseHtml">
<img src="https://grhsjournalist.com/wp-content/uploads/2024/02/MV5BNDYzYzc0MDYtMGM2MC00YzNjLWJhMjYtYzJhMWViMjgxZTcwXkEyXkFqcGdeQXVyMTUzMTg2ODkz._V1_.jpg" class="bbCodeImage LbImage" alt="[​IMG]" data-url="https://grhsjournalist.com/wp-content/uploads/2024/02/MV5BNDYzYzc0MDYtMGM2MC00YzNjLWJhMjYtYzJhMWViMjgxZTcwXkEyXkFqcGdeQXVyMTUzMTg2ODkz._V1_.jpg" style=""> <br>
<br>
<br>
<div style="text-align: center">MEDIA INFO​</div>
<div class="bbCodeBlock bbCodeCode">
<div class="type">Code:</div>
<pre>Video
ID                             : 1
Format                         : AVC
Format/Info                    : Advanced Video Codec
Format profile                 : High@L4
Format settings, CABAC         : Yes
Format settings, RefFrames     : 2 frames
Codec ID                       : V_MPEG4/ISO/AVC
Duration                       : 1 h 43 min
Bit rate                       : 5 636 kb/s
Width                          : 1 920 pixels
Height                         : 1 080 pixels
Display aspect ratio           : 16:9
Frame rate mode                : Constant
Frame rate                     : 23.976 (24000/1001) FPS
Color space                    : YUV
Chroma subsampling             : 4:2:0
Bit depth                      : 8 bits
Scan type                      : Progressive
Bits/(Pixel*Frame)             : 0.113
Stream size                    : 4.08 GiB (94%)
Writing library                : x264 core 155 r2901 7d0ff22
Default                        : Yes
Forced                         : No
Color range                    : Limited
Color primaries                : BT.709
Transfer characteristics       : BT.709
Matrix coefficients            : BT.709

Audio
ID                             : 2
Format                         : AC-3
Format/Info                    : Audio Coding 3
Format settings, Endianness    : Big
Codec ID                       : A_AC3
Duration                       : 1 h 43 min
Bit rate mode                  : Constant
Bit rate                       : 384 kb/s
Channel(s)                     : 6 channels
Channel positions              : Front: L C R, Side: L R, LFE
Sampling rate                  : 48.0 kHz
Frame rate                     : 31.250 FPS (1536 SPF)
Bit depth                      : 16 bits
Compression mode               : Lossy
Stream size                    : 284 MiB (6%)
Language                       : Spanish
Service kind                   : Complete Main
Default                        : Yes
Forced                         : No</pre>
</div><div style="padding-left: 30px"><div style="padding-left: 30px"><div style="text-align: center">CAPTURES<br>
<img src="https://i.ibb.co/M6qfVkC/Anyone-But-You-1080p-mkv-thumbs-2024-07-10-18-42-14.png" class="bbCodeImage LbImage" alt="[​IMG]" data-url="https://i.ibb.co/M6qfVkC/Anyone-But-You-1080p-mkv-thumbs-2024-07-10-18-42-14.png" style=""> <br>
<br>
LINK DESCARGA<br>
<div class="bbCodeBlock bbCodeVfcHH HiddenContent">
<div class="attribution type">Hidden Content:</div>
<blockquote>You must reply before you can see the hidden data contained here.</blockquote>
</div></div></div></div>
<div class="messageTextEndMarker">&nbsp;</div>
</blockquote>
</article>]]></description>
                <author><![CDATA[jazon]]></author>
                </item>

                </channel></rss>